ModelForces
nRows=219
nColumns=3

This file contains the forces exerted on a model during a simulation.

A force is a generalized force, meaning that it can be either a force (N) or a torque (Nm).

Units are S.I. units (second, meters, Newtons, ...)
Angles are in degrees.

endheader
time	piston	spring
      0.00000000	      0.00000000	    157.83675456
      0.01000000	      0.00000000	    158.02806523
      0.06000000	      0.00000000	    164.52415955
      0.17254900	      0.00000000	    201.88400994
      0.28509801	      0.00000000	    232.72292148
      0.39589985	      0.00000000	    222.58218565
      0.50670170	      0.00000000	    183.32659167
      0.61750354	      0.00000000	    158.25053391
      0.71280708	      0.00000000	    170.29103496
      0.80811061	      0.00000000	    204.01082767
      0.93666942	      0.00000000	    234.13941244
      1.04985590	      0.00000000	    215.27743018
      1.16304238	      0.00000000	    174.56522549
      1.27622887	      0.00000000	    158.59069011
      1.37870781	      0.00000000	    181.72635081
      1.48118676	      0.00000000	    218.65612102
      1.59658504	      0.00000000	    233.27336583
      1.71198333	      0.00000000	    203.92737656
      1.82738162	      0.00000000	    165.44028533
      1.93705013	      0.00000000	    162.28814526
      2.04671864	      0.00000000	    195.70389959
      2.15638715	      0.00000000	    229.57785549
      2.26568675	      0.00000000	    227.33459083
      2.37498634	      0.00000000	    191.54745969
      2.48428593	      0.00000000	    160.75679622
      2.58187514	      0.00000000	    165.27291331
      2.67946435	      0.00000000	    196.82152741
      2.79827189	      0.00000000	    231.35783295
      2.90756145	      0.00000000	    224.48081371
      3.01685101	      0.00000000	    187.14103597
      3.12614057	      0.00000000	    159.53399829
      3.22027995	      0.00000000	    167.31130417
      3.33369606	      0.00000000	    205.78684791
      3.44711216	      0.00000000	    233.17129664
      3.55910259	      0.00000000	    218.44507224
      3.67109301	      0.00000000	    178.70582168
      3.78308343	      0.00000000	    158.59988801
      3.88285331	      0.00000000	    176.59464468
      3.98262318	      0.00000000	    212.41025096
      4.09318161	      0.00000000	    229.04083570
      4.20374004	      0.00000000	    209.21893806
      4.31429846	      0.00000000	    176.76813363
      4.44223857	      0.00000000	    166.12142161
      4.57017868	      0.00000000	    192.86083455
      4.69811879	      0.00000000	    221.37160767
      4.82135699	      0.00000000	    218.94014740
      4.94459518	      0.00000000	    192.21636441
      5.06783338	      0.00000000	    170.78882581
      5.18614949	      0.00000000	    174.34901594
      5.30446560	      0.00000000	    196.01921140
      5.45475779	      0.00000000	    217.89644295
      5.60047517	      0.00000000	    210.89000781
      5.74619254	      0.00000000	    187.40310579
      5.92264806	      0.00000000	    174.00595218
      6.07867205	      0.00000000	    186.50366414
      6.23469605	      0.00000000	    204.65486155
      6.42484847	      0.00000000	    208.60170160
      6.61500089	      0.00000000	    192.97494680
      6.80515331	      0.00000000	    178.01542683
      6.97303239	      0.00000000	    174.67435061
      7.04834134	      0.00000000	    184.30343646
      7.12365029	      0.00000000	    200.17506484
      7.35447087	      0.00000000	    236.49184159
      7.55827831	      0.00000000	    228.92336996
      7.76208575	      0.00000000	    190.25841683
      7.96589319	      0.00000000	    157.22418531
      8.14516298	      0.00000000	    158.41663665
      8.32443277	      0.00000000	    187.85918321
      8.50370255	      0.00000000	    223.51530230
      8.70912001	      0.00000000	    238.15243850
      8.91453747	      0.00000000	    212.35513507
      9.11995493	      0.00000000	    170.98261813
      9.32537239	      0.00000000	    153.85914727
      9.49758678	      0.00000000	    171.37097835
      9.66980118	      0.00000000	    206.10829846
      9.89737092	      0.00000000	    237.73858211
      9.99214602	      0.00000000	    236.98601110
     10.03003704	      0.00000000	    260.67344489
     10.06792805	      0.00000000	    287.66381759
     10.22988216	      0.00000000	    303.87462460
     10.32903103	      0.00000000	    197.53946478
     10.40989949	      0.00000000	     66.59045576
     10.47507803	      0.00000000	    -26.49299503
     10.52585126	      0.00000000	    -64.01393080
     10.57662450	      0.00000000	    -53.50393383
     10.62739773	      0.00000000	     12.17461738
     10.67817097	      0.00000000	    127.17689036
     10.74580580	      0.00000000	    319.16063245
     10.81344062	      0.00000000	    479.34204232
     10.89727139	      0.00000000	    507.21888270
     10.98110216	      0.00000000	    293.02528683
     11.04141636	      0.00000000	     55.55714696
     11.10173057	      0.00000000	   -140.36639126
     11.13997359	      0.00000000	   -195.60082583
     11.17821661	      0.00000000	   -176.51462522
     11.21645964	      0.00000000	    -80.88946501
     11.25470266	      0.00000000	     77.26121476
     11.30320017	      0.00000000	    320.57332704
     11.35169768	      0.00000000	    534.78914572
     11.41106516	      0.00000000	    641.16302920
     11.47043264	      0.00000000	    507.43194659
     11.52980012	      0.00000000	    185.88649393
     11.58916759	      0.00000000	   -150.78037787
     11.61869955	      0.00000000	   -258.11228337
     11.64823150	      0.00000000	   -297.71024993
     11.67776346	      0.00000000	   -260.10084318
     11.70729541	      0.00000000	   -147.76663441
     11.73682736	      0.00000000	     24.22637718
     11.77721841	      0.00000000	    307.36377449
     11.81760945	      0.00000000	    566.48456356
     11.85800050	      0.00000000	    716.71884000
     11.91700451	      0.00000000	    637.33000510
     11.97600851	      0.00000000	    246.04499060
     12.00871565	      0.00000000	    -16.75906965
     12.05102252	      0.00000000	   -287.04266680
     12.07837001	      0.00000000	   -371.88851839
     12.10571751	      0.00000000	   -364.40568342
     12.13190406	      0.00000000	   -268.72715806
     12.15809061	      0.00000000	    -98.52110471
     12.19336299	      0.00000000	    203.93345226
     12.22863537	      0.00000000	    512.67987322
     12.26390776	      0.00000000	    737.66299203
     12.31283068	      0.00000000	    787.25112857
     12.36175359	      0.00000000	    502.66799008
     12.41067651	      0.00000000	     30.45845887
     12.44980688	      0.00000000	   -302.26682036
     12.47678604	      0.00000000	   -430.44977028
     12.50376520	      0.00000000	   -443.14037238
     12.52809129	      0.00000000	   -350.29738864
     12.55241737	      0.00000000	   -170.42958950
     12.58494527	      0.00000000	    158.97294164
     12.61747317	      0.00000000	    506.29428301
     12.65000107	      0.00000000	    772.61495303
     12.69336260	      0.00000000	    869.74929446
     12.73672413	      0.00000000	    624.29786186
     12.78008566	      0.00000000	    149.40971796
     12.82344719	      0.00000000	   -313.87100638
     12.84634366	      0.00000000	   -465.74837264
     12.86924012	      0.00000000	   -517.89682842
     12.89213659	      0.00000000	   -460.08838268
     12.91503305	      0.00000000	   -298.91622824
     12.93792952	      0.00000000	    -57.50408046
     12.96865621	      0.00000000	    327.16211368
     12.99938290	      0.00000000	    681.57892493
     13.03010959	      0.00000000	    902.57259291
     13.07350840	      0.00000000	    866.63980641
     13.11690722	      0.00000000	    444.22376808
     13.15549400	      0.00000000	    -71.83149923
     13.18636655	      0.00000000	   -413.01044869
     13.20836850	      0.00000000	   -550.13120947
     13.23037044	      0.00000000	   -570.68520197
     13.25097384	      0.00000000	   -479.12687616
     13.27157724	      0.00000000	   -291.35730759
     13.29699300	      0.00000000	     34.78436736
     13.32862245	      0.00000000	    486.85119938
     13.36025191	      0.00000000	    849.40286086
     13.39188137	      0.00000000	    997.63016661
     13.43421621	      0.00000000	    776.61771401
     13.47655105	      0.00000000	    200.32530815
     13.51557283	      0.00000000	   -353.19926009
     13.53656954	      0.00000000	   -550.30863405
     13.55756626	      0.00000000	   -631.69495907
     13.57856297	      0.00000000	   -582.60649948
     13.59955968	      0.00000000	   -408.70496776
     13.62055640	      0.00000000	   -135.82804623
     13.64807878	      0.00000000	    299.32629994
     13.67560117	      0.00000000	    711.93690210
     13.70312355	      0.00000000	    986.41878936
     13.74086273	      0.00000000	   1002.08674246
     13.77860191	      0.00000000	    597.01262182
     13.81752879	      0.00000000	    -46.29452070
     13.84651856	      0.00000000	   -463.48404229
     13.86696889	      0.00000000	   -639.55824160
     13.88741921	      0.00000000	   -681.44820525
     13.90632922	      0.00000000	   -592.78227231
     13.92523922	      0.00000000	   -392.38642164
     13.94414923	      0.00000000	   -107.04558732
     13.97066139	      0.00000000	    359.34319858
     13.99717354	      0.00000000	    786.13093204
     14.02368570	      0.00000000	   1053.20236502
     14.06025337	      0.00000000	   1026.49561224
     14.09682105	      0.00000000	    560.32322002
     14.13480430	      0.00000000	   -132.53273763
     14.15931442	      0.00000000	   -508.33577010
     14.17880032	      0.00000000	   -688.50049838
     14.19828623	      0.00000000	   -729.78628936
     14.21653032	      0.00000000	   -634.81346828
     14.23477441	      0.00000000	   -422.28224857
     14.25301850	      0.00000000	   -120.74522325
     14.27855480	      0.00000000	    369.92734209
     14.30409109	      0.00000000	    818.00095100
     14.32962738	      0.00000000	   1098.19054297
     14.36462708	      0.00000000	   1072.86391811
     14.39962678	      0.00000000	    592.62216985
     14.43662724	      0.00000000	   -140.28622827
     14.46039510	      0.00000000	   -538.32459238
     14.47930676	      0.00000000	   -730.56508836
     14.49821843	      0.00000000	   -776.44137588
     14.51593628	      0.00000000	   -678.24723002
     14.53365413	      0.00000000	   -455.73468212
     14.55137198	      0.00000000	   -139.08193090
     14.57603464	      0.00000000	    373.85122944
     14.60069729	      0.00000000	    843.14150940
     14.62535994	      0.00000000	   1138.58588921
     14.65894096	      0.00000000	   1120.33507630
     14.69252197	      0.00000000	    632.58835794
     14.72860187	      0.00000000	   -137.08519163
     14.75201561	      0.00000000	   -563.86998435
     14.77043376	      0.00000000	   -769.30809285
     14.78885191	      0.00000000	   -821.20030703
     14.80613273	      0.00000000	   -721.02033835
     14.82341355	      0.00000000	   -489.40648515
     14.84069436	      0.00000000	   -158.13507871
     14.86458202	      0.00000000	    375.81308663
     14.88846967	      0.00000000	    865.64105402
     14.91235732	      0.00000000	   1176.43297319
     14.94468195	      0.00000000	   1166.45838381
     14.97700658	      0.00000000	    673.23437830
     15.00000000	      0.00000000	    152.52268635
